<?xml version="1.0" encoding="UTF-8" standalone="no"?>
<!-- Created with Inkscape (http://www.inkscape.org/) -->
<svg
   xmlns:xml="http://www.w3.org/XML/1998/namespace"
   xmlns:dc="http://purl.org/dc/elements/1.1/"
   xmlns:cc="http://web.resource.org/cc/"
   xmlns:rdf="http://www.w3.org/1999/02/22-rdf-syntax-ns#"
   xmlns:svg="http://www.w3.org/2000/svg"
   xmlns="http://www.w3.org/2000/svg"
   xmlns:xlink="http://www.w3.org/1999/xlink"
   xmlns:sodipodi="http://inkscape.sourceforge.net/DTD/sodipodi-0.dtd"
   xmlns:inkscape="http://www.inkscape.org/namespaces/inkscape"
   inkscape:export-ydpi="178.59000"
   inkscape:export-xdpi="178.59000"
   inkscape:export-filename="/home/pierre/public_html/laber-land/develop/images/logo.png"
   width="200.00000px"
   height="200.00000px"
   id="svg2"
   sodipodi:version="0.32"
   inkscape:version="0.41"
   sodipodi:docbase="/home/pierre/public_html/laber-land/ll/trunk/images/src"
   sodipodi:docname="logo_ie.svg">
  <defs
     id="defs3">
    <linearGradient
       inkscape:collect="always"
       id="linearGradient2093">
      <stop
         style="stop-color:#ffffff;stop-opacity:1;"
         offset="0"
         id="stop2095" />
      <stop
         style="stop-color:#ffffff;stop-opacity:0;"
         offset="1"
         id="stop2097" />
    </linearGradient>
    <radialGradient
       inkscape:collect="always"
       xlink:href="#linearGradient2093"
       id="radialGradient2101"
       gradientTransform="scale(1.160319,0.861832)"
       cx="44.340893"
       cy="12.863649"
       fx="44.340893"
       fy="12.863649"
       r="67.677994"
       gradientUnits="userSpaceOnUse" />
    <radialGradient
       inkscape:collect="always"
       xlink:href="#linearGradient2093"
       id="radialGradient2105"
       gradientUnits="userSpaceOnUse"
       gradientTransform="scale(1.160319,0.861832)"
       cx="36.611759"
       cy="6.5188384"
       fx="36.611759"
       fy="6.5188384"
       r="115.98373" />
  </defs>
  <sodipodi:namedview
     id="base"
     pagecolor="#ffffff"
     bordercolor="#666666"
     borderopacity="1.0"
     inkscape:pageopacity="0.0"
     inkscape:pageshadow="2"
     inkscape:zoom="3.5146670"
     inkscape:cx="137.12761"
     inkscape:cy="99.467851"
     inkscape:document-units="px"
     inkscape:current-layer="layer1"
     inkscape:window-width="1280"
     inkscape:window-height="955"
     inkscape:window-x="0"
     inkscape:window-y="0" />
  <metadata
     id="metadata4">
    <rdf:RDF
       id="RDF5">
      <cc:Work
         rdf:about=""
         id="Work6">
        <dc:format
           id="format7">image/svg+xml</dc:format>
        <dc:type
           id="type9"
           rdf:resource="http://purl.org/dc/dcmitype/StillImage" />
      </cc:Work>
    </rdf:RDF>
  </metadata>
  <g
     inkscape:label="Layer 1"
     inkscape:groupmode="layer"
     id="layer1">
    <path
       style="opacity:0.40977445;fill:#000000;fill-opacity:0.43137255"
       d="M 77.793758,4.6327242 C 36.124580,4.6327242 2.3070497,31.768384 2.3070519,65.204530 C 2.3070519,82.606683 11.477207,98.291606 26.137599,109.34331 L 11.122823,149.54030 L 49.468764,121.34847 C 58.218218,124.19583 67.775956,125.77634 77.793758,125.77634 C 119.46294,125.77634 153.28047,98.640676 153.28046,65.204530 C 153.28046,31.768384 119.46294,4.6327242 77.793758,4.6327242 z "
       id="path2211" />
    <path
       style="fill:#000000;fill-opacity:0.43137255"
       d="M 77.002128,3.7087742 C 35.332950,3.7087742 1.5154197,30.844434 1.5154219,64.280580 C 1.5154219,81.682733 10.685577,97.367656 25.345969,108.41936 L 10.331193,148.61635 L 48.677134,120.42452 C 57.426588,123.27188 66.984326,124.85239 77.002128,124.85239 C 118.67131,124.85239 152.48884,97.716726 152.48883,64.280580 C 152.48883,30.844434 118.67131,3.7087742 77.002128,3.7087742 z "
       id="path1467" />
    <path
       style="fill:#ffcc00;fill-opacity:1.0000000"
       d="M 75.784588,0.66491562 C 34.115410,0.66491562 0.29787973,27.800575 0.29788186,61.236721 C 0.29788186,78.638874 9.4680373,94.323796 24.128429,105.37550 L 9.1136529,145.57249 L 47.459594,117.38067 C 56.209048,120.22802 65.766786,121.80853 75.784588,121.80853 C 117.45377,121.80853 151.27130,94.672867 151.27129,61.236721 C 151.27129,27.800575 117.45377,0.66491562 75.784588,0.66491562 z "
       id="path1483" />
    <path
       style="opacity:0.40977445;fill:#000000;fill-opacity:0.43137255"
       d="M 138.21789,24.995887 C 171.53017,24.995887 198.56547,45.861566 198.56546,71.571936 C 198.56546,84.953139 191.23442,97.013892 179.51422,105.51198 L 191.51773,136.42103 L 160.86221,114.74323 C 153.86749,116.93267 146.22659,118.14798 138.21789,118.14798 C 104.90565,118.14798 77.870348,97.282307 77.870348,71.571936 C 77.870348,45.861566 104.90565,24.995887 138.21789,24.995887 z "
       id="path2213" />
    <path
       style="fill:#000000;fill-opacity:0.43137255"
       d="M 138.56435,23.787415 C 171.87663,23.787415 198.91193,44.653094 198.91192,70.363464 C 198.91192,83.744667 191.58088,95.805420 179.86068,104.30351 L 191.86419,135.21256 L 161.20867,113.53476 C 154.21395,115.72420 146.57305,116.93951 138.56435,116.93951 C 105.25211,116.93951 78.216806,96.073835 78.216806,70.363464 C 78.216806,44.653094 105.25211,23.787415 138.56435,23.787415 z "
       id="path1475" />
    <path
       sodipodi:type="arc"
       style="stroke-opacity:1.0000000;stroke:none;fill-opacity:1.0;fill:url(#radialGradient2101);opacity:0.77999993"
       id="path1317"
       sodipodi:cx="60.603180"
       sodipodi:cy="60.299709"
       sodipodi:rx="78.528069"
       sodipodi:ry="58.327003"
       d="M 139.13125 60.299709 A 78.528069 58.327003 0 1 1  -17.924889,60.299709 A 78.528069 58.327003 0 1 1  139.13125 60.299709 z"
       transform="matrix(0.972826,0.000000,0.000000,1.034146,17.15327,-1.489971)" />
    <path
       style="opacity:0.90000000;fill-opacity:0.94980693;fill:#322c62"
       d="M 139.17313,21.352326 C 172.48540,21.352326 199.52070,42.218005 199.52070,67.928376 C 199.52070,81.309579 192.18965,93.370332 180.46945,101.86842 L 192.47297,132.77747 L 161.81746,111.09967 C 154.82273,113.28911 147.18183,114.50443 139.17313,114.50443 C 105.86088,114.50443 78.825580,93.638746 78.825580,67.928376 C 78.825580,42.218005 105.86088,21.352326 139.17313,21.352326 z "
       id="path1485" />
    <path
       sodipodi:type="arc"
       style="stroke-opacity:1.0000000;stroke:none;fill-opacity:1.0;fill:url(#radialGradient2105);opacity:0.50000000"
       id="path2103"
       sodipodi:cx="60.603180"
       sodipodi:cy="60.299709"
       sodipodi:rx="78.528069"
       sodipodi:ry="58.327003"
       d="M 139.13125 60.299709 A 78.528069 58.327003 0 1 1  -17.924889,60.299709 A 78.528069 58.327003 0 1 1  139.13125 60.299709 z"
       transform="matrix(0.780797,0.000000,0.000000,0.800000,92.66603,19.74205)" />
    <text
       xml:space="preserve"
       style="font-size:32.935001;font-style:normal;font-variant:normal;font-weight:bold;font-stretch:normal;fill:#000000;fill-opacity:0.43137255;stroke:none;stroke-width:1.0000000px;stroke-linecap:butt;stroke-linejoin:miter;stroke-opacity:1.0000000;font-family:Bitstream Vera Serif;text-anchor:start;writing-mode:lr-tb"
       x="70.174591"
       y="-20.516659"
       id="text7618"
       sodipodi:linespacing="100%"
       transform="matrix(0.149701,0.988731,-0.988731,0.149701,0.000000,0.000000)"><tspan
         sodipodi:role="line"
         id="tspan7620"
         x="70.174591"
         y="-20.516659">:-)</tspan></text>
    <text
       xml:space="preserve"
       style="font-size:32.935080;font-style:normal;font-variant:normal;font-weight:bold;font-stretch:normal;fill:#261f4e;fill-opacity:1.0000000;stroke:none;stroke-width:1.0000000px;stroke-linecap:butt;stroke-linejoin:miter;stroke-opacity:1.0000000;font-family:Bitstream Vera Serif;text-anchor:start;writing-mode:lr;line-height:100.00003%"
       x="69.06192"
       y="-21.300837"
       id="text6049"
       sodipodi:linespacing="100%"
       transform="matrix(0.149701,0.988731,-0.988731,0.149701,0.000000,0.000000)"><tspan
         sodipodi:role="line"
         id="tspan6051"
         x="69.061920"
         y="-21.300837">:-)</tspan></text>
    <text
       xml:space="preserve"
       style="font-size:31.913984;font-style:normal;font-variant:normal;font-weight:bold;font-stretch:normal;fill:#000000;fill-opacity:0.43137255;stroke:none;stroke-width:1.0000000px;stroke-linecap:butt;stroke-linejoin:miter;stroke-opacity:1.0000000;font-family:Bitstream Vera Serif;text-anchor:start;writing-mode:lr-tb"
       x="54.540668"
       y="24.728598"
       id="text6834"
       sodipodi:linespacing="100%"
       transform="matrix(0.958379,0.285498,-0.285498,0.958379,0.000000,0.000000)"><tspan
         x="54.540668"
         y="24.728598"
         sodipodi:role="line"
         id="tspan1325">;-)</tspan></text>
    <text
       xml:space="preserve"
       style="font-size:31.913940;font-style:normal;font-variant:normal;font-weight:bold;font-stretch:normal;fill:#261f4e;fill-opacity:1.0000000;stroke:none;stroke-width:1.0000000px;stroke-linecap:butt;stroke-linejoin:miter;stroke-opacity:1.0000000;font-family:Bitstream Vera Serif;text-anchor:start;writing-mode:lr-tb"
       x="52.208004"
       y="24.386934"
       id="text6811"
       sodipodi:linespacing="100%"
       transform="matrix(0.956419,0.291998,-0.291998,0.956419,0.000000,0.000000)"><tspan
         x="52.208004"
         y="24.386934"
         sodipodi:role="line"
         id="tspan1323">;-)</tspan></text>
    <text
       xml:space="preserve"
       style="line-height:100.00002%;writing-mode:lr;text-anchor:start;font-family:Arial;stroke-opacity:1.0000000;stroke-linejoin:miter;stroke-linecap:butt;stroke-width:1.0000000px;stroke:none;fill-opacity:0.43137255;fill:#000000;font-stretch:normal;font-weight:bold;font-variant:normal;font-style:normal;font-size:32.934930"
       x="-34.091129"
       y="140.60632"
       id="text7622"
       sodipodi:linespacing="100%"
       transform="matrix(0.654995,-0.755633,0.755633,0.654995,0.000000,0.000000)"><tspan
         x="-34.091129"
         y="140.60632"
         sodipodi:role="line"
         id="tspan7624">?</tspan></text>
    <text
       xml:space="preserve"
       style="font-size:32.934925;font-style:normal;font-variant:normal;font-weight:bold;font-stretch:normal;fill:#000000;fill-opacity:0.43137255;stroke:none;stroke-width:1.0000000px;stroke-linecap:butt;stroke-linejoin:miter;stroke-opacity:1.0000000;font-family:Arial;text-anchor:start;writing-mode:lr-tb"
       x="43.225349"
       y="45.844879"
       id="text1336"
       sodipodi:linespacing="100%"
       transform="matrix(0.853649,0.520848,-0.520848,0.853649,0.000000,0.000000)"><tspan
         x="43.225349"
         y="45.844879"
         sodipodi:role="line"
         id="tspan1342">!</tspan></text>
    <text
       xml:space="preserve"
       style="font-size:32.934929;font-style:normal;font-variant:normal;font-weight:bold;font-stretch:normal;fill:#261f4e;fill-opacity:1.0000000;stroke:none;stroke-width:1.0000000px;stroke-linecap:butt;stroke-linejoin:miter;stroke-opacity:1.0000000;font-family:Arial;text-anchor:start;writing-mode:lr-tb"
       x="-32.821812"
       y="139.77742"
       id="text6819"
       sodipodi:linespacing="100%"
       transform="matrix(0.654995,-0.755633,0.755633,0.654995,0.000000,0.000000)"><tspan
         x="-32.821812"
         y="139.77742"
         sodipodi:role="line"
         id="tspan6823">?</tspan></text>
    <text
       xml:space="preserve"
       style="font-size:32.934864;font-style:normal;font-variant:normal;font-weight:bold;font-stretch:normal;fill:#261f4e;fill-opacity:1.0000000;stroke:none;stroke-width:1.0000000px;stroke-linecap:butt;stroke-linejoin:miter;stroke-opacity:1.0000000;font-family:Arial;text-anchor:start;writing-mode:lr-tb"
       x="41.660267"
       y="46.098713"
       id="text1328"
       sodipodi:linespacing="100%"
       transform="matrix(0.859988,0.510314,-0.510314,0.859988,0.000000,0.000000)"><tspan
         x="41.660267"
         y="46.098713"
         sodipodi:role="line"
         id="tspan1344">!</tspan></text>
    <text
       id="text1329"
       y="179.79012"
       x="-1.5508271"
       style="font-size:16.205393;font-style:normal;font-weight:normal;fill:#000000;fill-opacity:1.0000000;stroke:none;stroke-width:1.0000000px;stroke-linecap:butt;stroke-linejoin:miter;stroke-opacity:1.0000000;font-family:Bitstream Vera Sans"
       xml:space="preserve"><tspan
         y="179.79012"
         x="-1.5508271"
         id="tspan1331"
         sodipodi:role="line">IE-Kompatibilitäts-Modus</tspan></text>
  </g>
</svg>
